<svg width="80" height="80" viewBox="0 0 80 80" fill="none" xmlns="http://www.w3.org/2000/svg">
<mask id="path-1-inside-1_12_430" fill="white">
<path d="M77.5762 33.1584C77.3933 32.7927 77.3019 32.4269 77.3019 31.9698C76.5704 24.2894 72.8216 18.3462 66.3299 14.1402C65.7813 13.6831 65.4155 13.2259 65.1412 12.6773C62.9468 9.01998 60.2953 5.81981 56.9122 3.25967C51.2434 -0.946268 46.2145 -1.12913 41.0028 2.98537C39.997 3.71684 39.357 3.6254 38.3512 3.0768C32.1338 -0.4891 26.282 0.150934 20.9789 5.08834C18.3273 7.46561 16.0415 10.1172 14.3043 13.2259C14.03 13.5916 13.7557 13.9574 13.2985 14.1402C8.45251 16.7918 5.16091 20.9063 2.87507 25.9352C1.86931 28.221 1.0464 30.6897 1.68644 33.3413C1.77787 33.7984 1.68644 34.2556 1.50357 34.7128C0.314937 37.8215 -0.0507963 41.1131 0.0406371 44.4047C0.0406371 45.4105 -0.0507963 46.3248 0.0406371 47.3306C0.314937 50.5308 0.954971 53.7309 2.87507 56.3825C3.60654 57.3883 3.88084 58.394 4.15514 59.5827C5.52664 65.2515 8.36108 69.9146 13.3899 72.9319C14.67 73.6634 15.8586 74.4863 16.9558 75.4007C20.8875 78.5094 25.1848 79.698 30.1222 78.1437C30.5794 77.9608 31.0366 77.9608 31.5852 78.1437C34.0539 78.7837 36.5226 78.6008 38.8084 77.3208C39.6313 76.7722 40.2713 76.8636 41.0942 77.4122C43.6544 79.058 46.306 79.8809 49.3233 78.7837C49.7804 78.6008 50.2376 78.6923 50.6948 78.7837C56.2722 79.7895 61.301 77.5951 64.1355 72.7491C64.5926 72.0176 65.1412 71.5604 65.7813 71.1947C69.8043 68.9089 73.1874 65.8916 75.016 61.6856C76.2961 58.8512 77.6676 56.1082 78.4905 53.2738C80.5935 46.5077 80.6849 39.7416 77.5762 33.1584ZM38.4427 14.1402C38.1684 16.2432 38.2598 18.5291 38.3512 20.7235C38.4427 21.7292 38.1684 22.1864 37.0712 22.4607C33.231 23.4665 29.9394 25.478 27.4707 28.5867C26.282 29.9582 26.282 31.0554 27.2878 31.8783C28.2936 32.7012 29.3908 32.5184 30.488 31.2383C32.1338 29.2268 34.1453 27.7638 36.614 26.8495C38.3512 26.2095 38.3512 26.2095 38.3512 28.0381V38.0958C38.3512 41.4788 38.2598 44.9533 38.3512 48.4278C38.4427 49.7079 37.9855 49.7079 36.9797 49.2507C33.5053 47.9706 31.4023 45.8676 32.1338 41.8446C32.2252 40.9302 32.1338 40.1073 32.2252 39.193C32.2252 37.8215 31.4937 36.9986 30.3965 36.9072C29.2079 36.9072 28.2936 37.6386 28.2021 38.9187C28.0193 41.296 27.8364 43.6732 28.2936 45.9591C28.4764 46.782 28.2021 47.1477 27.6535 47.5135C26.0077 48.6107 24.4534 49.7993 23.0819 51.1708C21.8932 52.3594 21.7104 53.4566 22.6247 54.371C23.539 55.3767 24.7277 55.1939 26.0077 54.0052C27.1964 52.8166 28.5679 51.8108 29.9394 50.8051C30.488 50.4393 30.8537 50.4393 31.4023 50.8051C33.231 52.0851 35.2425 52.9995 37.254 53.8224C37.9855 54.0967 38.3512 54.4624 38.3512 55.2853V68.5431C38.3512 70.2804 35.2425 72.4748 33.5967 71.9262C33.0481 71.7433 32.9567 71.469 32.9567 71.0118C32.8652 68.726 32.6824 66.5316 31.9509 64.3372C31.8595 63.88 32.0423 63.5143 32.3166 63.24C32.8652 62.6 33.4138 61.9599 33.871 61.3199C34.511 60.3141 34.4196 59.3084 33.5053 58.5769C32.5909 57.8454 31.6766 57.9369 30.7623 58.7598C30.7623 58.7598 30.6708 58.7598 30.6708 58.8512C29.6651 60.6799 28.2021 60.8627 26.3735 60.2227C25.1848 59.857 24.1791 60.5884 23.9048 61.6856C23.6305 62.9657 24.1791 63.7886 25.5506 64.1543C28.1107 64.8858 28.385 65.343 28.6593 67.9945C28.6593 68.5431 28.7507 69.0917 28.7507 69.6403C29.025 71.6519 28.6593 72.0176 26.6478 72.2005C24.4534 72.3833 22.7161 71.469 21.0703 70.2804C19.516 69.1832 17.9616 68.086 16.3158 67.0802C12.9328 65.1601 11.2869 61.7771 10.464 58.0283C10.2812 57.2968 10.7383 57.114 11.2869 56.9311C12.7499 56.3825 14.1214 55.8339 15.4929 54.9196C17.2301 53.8224 17.7787 52.268 17.413 50.2565C16.773 47.3306 15.4929 44.679 14.03 42.1189C13.3899 41.0217 12.2013 40.6559 11.1955 41.296C10.1897 41.936 9.91545 42.9418 10.5555 44.1304C11.5612 46.1419 12.567 48.1535 13.2985 50.3479C13.5728 51.1708 13.2985 51.628 12.567 51.9937L11.0126 52.6337C8.63538 53.6395 8.08678 53.4566 7.35531 50.9879C5.98381 46.3248 5.98381 41.6617 7.53818 37.09C7.90391 35.7185 8.72681 35.2614 10.0983 35.0785C12.8413 34.6213 14.7614 35.5357 16.4072 37.6386C17.5959 39.1016 18.6931 40.5645 19.516 42.2103C20.156 43.3989 21.3446 43.8561 22.3504 43.3989C23.4476 42.8503 23.8133 41.5703 23.1733 40.2902C21.8932 37.8215 20.156 35.6271 18.2359 33.5241C15.9501 31.2383 13.2071 30.5068 10.1897 31.0554C7.90391 31.3297 7.72104 31.2383 8.54395 29.1353C9.82401 26.0266 11.7441 23.4665 14.3043 21.2721C15.0357 20.632 15.4929 20.4492 15.8586 21.6378C16.3158 22.8264 16.9558 23.8322 17.7787 24.838C19.0588 26.3009 20.6132 26.5752 22.3504 25.7523C23.7219 25.1123 24.8191 24.1065 25.8249 23.1007C27.8364 21.0892 29.8479 19.1691 31.768 17.1576C32.8652 16.0604 32.9567 15.0546 32.0423 14.1402C31.2194 13.2259 30.0308 13.2259 29.025 14.2317C26.7392 16.3347 24.6362 18.5291 22.4418 20.632C20.7046 22.2778 20.7046 22.1864 19.6074 20.0834C18.9674 18.8034 19.1502 17.6147 19.8817 16.4261C21.6189 13.5916 23.8133 11.1229 26.4649 8.92854C28.5679 7.09987 30.9451 6.91701 33.5053 7.92278C34.1453 8.19708 34.7853 8.56281 35.3339 8.83711C37.4369 9.93431 38.717 11.3972 38.4427 14.1402ZM72.3645 51.4451C71.7244 53.4566 71.4501 53.4566 69.6215 52.7252C66.6956 51.5365 66.6042 51.4451 67.7928 48.5192C68.4328 47.1477 69.1643 45.7762 69.8043 44.3133C70.4444 43.0332 70.1701 41.7531 69.1643 41.2045C68.0671 40.6559 66.9699 41.1131 66.2384 42.3017C64.8669 44.9533 63.4954 47.6049 63.0383 50.6222C62.764 52.268 63.2211 53.5481 64.5012 54.6453C65.8727 55.651 67.4271 56.2911 68.89 56.8397C69.53 57.114 69.8958 57.3883 69.53 58.0283C68.25 61.5028 65.6898 63.7886 62.5811 65.5258C62.0325 65.8001 61.7582 65.5258 61.3925 65.1601C60.5696 63.9715 59.6552 62.8743 58.4666 62.0514C57.7351 61.5028 57.6437 60.9542 57.8266 60.2227L58.3752 57.4797C58.4666 56.2911 57.8266 55.5596 56.7294 55.3767C55.5407 55.1939 54.7178 55.7425 54.3521 56.8397C54.0778 57.754 54.3521 59.1255 53.6206 59.6741C52.8892 60.1313 51.7005 59.7655 50.7862 59.857C50.329 59.857 49.8719 60.0398 49.4147 60.1313C48.1346 60.497 47.4946 61.3199 47.7689 62.5085C47.9518 63.6972 48.8661 64.4286 50.2376 64.0629C53.8949 63.24 56.3636 65.0687 58.3752 67.8117C58.9238 68.5431 58.8323 69.0917 58.3752 69.8232C56.5465 72.4748 53.7121 73.3891 50.7862 71.9262C49.5976 71.2861 48.7747 71.1033 47.7689 72.2005C47.2203 72.9319 46.3974 72.8405 45.4831 72.4748C43.1058 71.469 42.4657 70.3718 42.4657 67.8117V51.2622C42.4657 49.4336 42.6486 49.2507 44.4773 49.525C46.2145 49.7993 47.7689 50.4393 49.049 51.5365C50.2376 52.5423 51.4262 52.6337 52.2491 51.7194C53.1635 50.7136 52.9806 49.6164 51.7005 48.5192C49.5061 46.5077 46.946 45.5019 44.1116 45.5019C42.74 45.5019 42.5572 45.0447 42.3743 43.8561C42.1 40.5645 42.4657 38.0958 46.2145 36.9072C47.7689 36.3586 48.7747 36.0843 49.8719 37.2729C50.4205 37.8215 50.9691 38.2787 51.5177 38.7358C52.6149 39.7416 53.7121 39.7416 54.535 38.8273C55.3579 38.0044 55.3579 36.8157 54.3521 35.81C53.3463 34.7128 52.2491 33.8899 51.0605 33.067C50.5119 32.7012 50.2376 32.2441 50.329 31.5126C50.4205 29.9582 50.4205 28.4953 50.329 26.9409C50.2376 25.478 49.4147 24.7465 48.1346 24.838C46.8546 24.9294 46.306 25.6609 46.306 27.1238C46.306 27.9467 46.2145 28.7696 46.306 29.5925C46.5803 31.6955 45.6659 32.9755 43.7458 33.707C42.74 34.1642 42.4657 34.0727 42.4657 32.9755V22.095V11.763C42.4657 10.8486 42.74 10.1172 43.3801 9.47714C46.8546 5.81981 49.2318 5.63694 53.1635 8.65424C55.9065 10.7572 58.0094 13.4088 59.7467 16.3347C60.2038 17.0661 60.1124 17.4319 59.4724 17.9805C57.4608 19.4434 56.8208 19.5348 54.6264 18.3462C53.1635 17.4319 51.8834 16.3347 51.1519 14.6888C50.5119 13.3173 49.4147 12.8602 48.2261 13.5002C47.1289 14.0488 46.8546 15.146 47.4032 16.4261C49.1404 20.0834 52.2491 22.1864 55.9979 23.2836C57.0037 23.5579 58.1009 23.375 59.1066 22.9179C59.8381 22.4607 60.661 22.0035 61.4839 21.5464C63.8612 19.8091 63.8612 19.8091 65.9641 22.0035C68.0671 24.1979 69.6215 26.7581 70.4444 29.6839C70.7187 30.5983 70.5358 31.0554 69.4386 30.8726C66.2384 30.5983 63.6783 31.8783 61.5753 34.2556C60.021 36.0843 58.558 37.9129 57.4608 40.1073C56.7294 41.4788 56.9122 42.7589 58.0094 43.3075C59.1981 43.8561 60.2953 43.3989 61.0267 42.0274C62.2154 39.7416 63.7697 37.7301 65.5984 35.9928C68.0671 33.8899 71.633 34.8042 72.5473 37.9129C73.8274 42.3932 73.736 46.9649 72.3645 51.4451Z"/>
</mask>
<path d="M77.5762 33.1584C77.3933 32.7927 77.3019 32.4269 77.3019 31.9698C76.5704 24.2894 72.8216 18.3462 66.3299 14.1402C65.7813 13.6831 65.4155 13.2259 65.1412 12.6773C62.9468 9.01998 60.2953 5.81981 56.9122 3.25967C51.2434 -0.946268 46.2145 -1.12913 41.0028 2.98537C39.997 3.71684 39.357 3.6254 38.3512 3.0768C32.1338 -0.4891 26.282 0.150934 20.9789 5.08834C18.3273 7.46561 16.0415 10.1172 14.3043 13.2259C14.03 13.5916 13.7557 13.9574 13.2985 14.1402C8.45251 16.7918 5.16091 20.9063 2.87507 25.9352C1.86931 28.221 1.0464 30.6897 1.68644 33.3413C1.77787 33.7984 1.68644 34.2556 1.50357 34.7128C0.314937 37.8215 -0.0507963 41.1131 0.0406371 44.4047C0.0406371 45.4105 -0.0507963 46.3248 0.0406371 47.3306C0.314937 50.5308 0.954971 53.7309 2.87507 56.3825C3.60654 57.3883 3.88084 58.394 4.15514 59.5827C5.52664 65.2515 8.36108 69.9146 13.3899 72.9319C14.67 73.6634 15.8586 74.4863 16.9558 75.4007C20.8875 78.5094 25.1848 79.698 30.1222 78.1437C30.5794 77.9608 31.0366 77.9608 31.5852 78.1437C34.0539 78.7837 36.5226 78.6008 38.8084 77.3208C39.6313 76.7722 40.2713 76.8636 41.0942 77.4122C43.6544 79.058 46.306 79.8809 49.3233 78.7837C49.7804 78.6008 50.2376 78.6923 50.6948 78.7837C56.2722 79.7895 61.301 77.5951 64.1355 72.7491C64.5926 72.0176 65.1412 71.5604 65.7813 71.1947C69.8043 68.9089 73.1874 65.8916 75.016 61.6856C76.2961 58.8512 77.6676 56.1082 78.4905 53.2738C80.5935 46.5077 80.6849 39.7416 77.5762 33.1584ZM38.4427 14.1402C38.1684 16.2432 38.2598 18.5291 38.3512 20.7235C38.4427 21.7292 38.1684 22.1864 37.0712 22.4607C33.231 23.4665 29.9394 25.478 27.4707 28.5867C26.282 29.9582 26.282 31.0554 27.2878 31.8783C28.2936 32.7012 29.3908 32.5184 30.488 31.2383C32.1338 29.2268 34.1453 27.7638 36.614 26.8495C38.3512 26.2095 38.3512 26.2095 38.3512 28.0381V38.0958C38.3512 41.4788 38.2598 44.9533 38.3512 48.4278C38.4427 49.7079 37.9855 49.7079 36.9797 49.2507C33.5053 47.9706 31.4023 45.8676 32.1338 41.8446C32.2252 40.9302 32.1338 40.1073 32.2252 39.193C32.2252 37.8215 31.4937 36.9986 30.3965 36.9072C29.2079 36.9072 28.2936 37.6386 28.2021 38.9187C28.0193 41.296 27.8364 43.6732 28.2936 45.9591C28.4764 46.782 28.2021 47.1477 27.6535 47.5135C26.0077 48.6107 24.4534 49.7993 23.0819 51.1708C21.8932 52.3594 21.7104 53.4566 22.6247 54.371C23.539 55.3767 24.7277 55.1939 26.0077 54.0052C27.1964 52.8166 28.5679 51.8108 29.9394 50.8051C30.488 50.4393 30.8537 50.4393 31.4023 50.8051C33.231 52.0851 35.2425 52.9995 37.254 53.8224C37.9855 54.0967 38.3512 54.4624 38.3512 55.2853V68.5431C38.3512 70.2804 35.2425 72.4748 33.5967 71.9262C33.0481 71.7433 32.9567 71.469 32.9567 71.0118C32.8652 68.726 32.6824 66.5316 31.9509 64.3372C31.8595 63.88 32.0423 63.5143 32.3166 63.24C32.8652 62.6 33.4138 61.9599 33.871 61.3199C34.511 60.3141 34.4196 59.3084 33.5053 58.5769C32.5909 57.8454 31.6766 57.9369 30.7623 58.7598C30.7623 58.7598 30.6708 58.7598 30.6708 58.8512C29.6651 60.6799 28.2021 60.8627 26.3735 60.2227C25.1848 59.857 24.1791 60.5884 23.9048 61.6856C23.6305 62.9657 24.1791 63.7886 25.5506 64.1543C28.1107 64.8858 28.385 65.343 28.6593 67.9945C28.6593 68.5431 28.7507 69.0917 28.7507 69.6403C29.025 71.6519 28.6593 72.0176 26.6478 72.2005C24.4534 72.3833 22.7161 71.469 21.0703 70.2804C19.516 69.1832 17.9616 68.086 16.3158 67.0802C12.9328 65.1601 11.2869 61.7771 10.464 58.0283C10.2812 57.2968 10.7383 57.114 11.2869 56.9311C12.7499 56.3825 14.1214 55.8339 15.4929 54.9196C17.2301 53.8224 17.7787 52.268 17.413 50.2565C16.773 47.3306 15.4929 44.679 14.03 42.1189C13.3899 41.0217 12.2013 40.6559 11.1955 41.296C10.1897 41.936 9.91545 42.9418 10.5555 44.1304C11.5612 46.1419 12.567 48.1535 13.2985 50.3479C13.5728 51.1708 13.2985 51.628 12.567 51.9937L11.0126 52.6337C8.63538 53.6395 8.08678 53.4566 7.35531 50.9879C5.98381 46.3248 5.98381 41.6617 7.53818 37.09C7.90391 35.7185 8.72681 35.2614 10.0983 35.0785C12.8413 34.6213 14.7614 35.5357 16.4072 37.6386C17.5959 39.1016 18.6931 40.5645 19.516 42.2103C20.156 43.3989 21.3446 43.8561 22.3504 43.3989C23.4476 42.8503 23.8133 41.5703 23.1733 40.2902C21.8932 37.8215 20.156 35.6271 18.2359 33.5241C15.9501 31.2383 13.2071 30.5068 10.1897 31.0554C7.90391 31.3297 7.72104 31.2383 8.54395 29.1353C9.82401 26.0266 11.7441 23.4665 14.3043 21.2721C15.0357 20.632 15.4929 20.4492 15.8586 21.6378C16.3158 22.8264 16.9558 23.8322 17.7787 24.838C19.0588 26.3009 20.6132 26.5752 22.3504 25.7523C23.7219 25.1123 24.8191 24.1065 25.8249 23.1007C27.8364 21.0892 29.8479 19.1691 31.768 17.1576C32.8652 16.0604 32.9567 15.0546 32.0423 14.1402C31.2194 13.2259 30.0308 13.2259 29.025 14.2317C26.7392 16.3347 24.6362 18.5291 22.4418 20.632C20.7046 22.2778 20.7046 22.1864 19.6074 20.0834C18.9674 18.8034 19.1502 17.6147 19.8817 16.4261C21.6189 13.5916 23.8133 11.1229 26.4649 8.92854C28.5679 7.09987 30.9451 6.91701 33.5053 7.92278C34.1453 8.19708 34.7853 8.56281 35.3339 8.83711C37.4369 9.93431 38.717 11.3972 38.4427 14.1402ZM72.3645 51.4451C71.7244 53.4566 71.4501 53.4566 69.6215 52.7252C66.6956 51.5365 66.6042 51.4451 67.7928 48.5192C68.4328 47.1477 69.1643 45.7762 69.8043 44.3133C70.4444 43.0332 70.1701 41.7531 69.1643 41.2045C68.0671 40.6559 66.9699 41.1131 66.2384 42.3017C64.8669 44.9533 63.4954 47.6049 63.0383 50.6222C62.764 52.268 63.2211 53.5481 64.5012 54.6453C65.8727 55.651 67.4271 56.2911 68.89 56.8397C69.53 57.114 69.8958 57.3883 69.53 58.0283C68.25 61.5028 65.6898 63.7886 62.5811 65.5258C62.0325 65.8001 61.7582 65.5258 61.3925 65.1601C60.5696 63.9715 59.6552 62.8743 58.4666 62.0514C57.7351 61.5028 57.6437 60.9542 57.8266 60.2227L58.3752 57.4797C58.4666 56.2911 57.8266 55.5596 56.7294 55.3767C55.5407 55.1939 54.7178 55.7425 54.3521 56.8397C54.0778 57.754 54.3521 59.1255 53.6206 59.6741C52.8892 60.1313 51.7005 59.7655 50.7862 59.857C50.329 59.857 49.8719 60.0398 49.4147 60.1313C48.1346 60.497 47.4946 61.3199 47.7689 62.5085C47.9518 63.6972 48.8661 64.4286 50.2376 64.0629C53.8949 63.24 56.3636 65.0687 58.3752 67.8117C58.9238 68.5431 58.8323 69.0917 58.3752 69.8232C56.5465 72.4748 53.7121 73.3891 50.7862 71.9262C49.5976 71.2861 48.7747 71.1033 47.7689 72.2005C47.2203 72.9319 46.3974 72.8405 45.4831 72.4748C43.1058 71.469 42.4657 70.3718 42.4657 67.8117V51.2622C42.4657 49.4336 42.6486 49.2507 44.4773 49.525C46.2145 49.7993 47.7689 50.4393 49.049 51.5365C50.2376 52.5423 51.4262 52.6337 52.2491 51.7194C53.1635 50.7136 52.9806 49.6164 51.7005 48.5192C49.5061 46.5077 46.946 45.5019 44.1116 45.5019C42.74 45.5019 42.5572 45.0447 42.3743 43.8561C42.1 40.5645 42.4657 38.0958 46.2145 36.9072C47.7689 36.3586 48.7747 36.0843 49.8719 37.2729C50.4205 37.8215 50.9691 38.2787 51.5177 38.7358C52.6149 39.7416 53.7121 39.7416 54.535 38.8273C55.3579 38.0044 55.3579 36.8157 54.3521 35.81C53.3463 34.7128 52.2491 33.8899 51.0605 33.067C50.5119 32.7012 50.2376 32.2441 50.329 31.5126C50.4205 29.9582 50.4205 28.4953 50.329 26.9409C50.2376 25.478 49.4147 24.7465 48.1346 24.838C46.8546 24.9294 46.306 25.6609 46.306 27.1238C46.306 27.9467 46.2145 28.7696 46.306 29.5925C46.5803 31.6955 45.6659 32.9755 43.7458 33.707C42.74 34.1642 42.4657 34.0727 42.4657 32.9755V22.095V11.763C42.4657 10.8486 42.74 10.1172 43.3801 9.47714C46.8546 5.81981 49.2318 5.63694 53.1635 8.65424C55.9065 10.7572 58.0094 13.4088 59.7467 16.3347C60.2038 17.0661 60.1124 17.4319 59.4724 17.9805C57.4608 19.4434 56.8208 19.5348 54.6264 18.3462C53.1635 17.4319 51.8834 16.3347 51.1519 14.6888C50.5119 13.3173 49.4147 12.8602 48.2261 13.5002C47.1289 14.0488 46.8546 15.146 47.4032 16.4261C49.1404 20.0834 52.2491 22.1864 55.9979 23.2836C57.0037 23.5579 58.1009 23.375 59.1066 22.9179C59.8381 22.4607 60.661 22.0035 61.4839 21.5464C63.8612 19.8091 63.8612 19.8091 65.9641 22.0035C68.0671 24.1979 69.6215 26.7581 70.4444 29.6839C70.7187 30.5983 70.5358 31.0554 69.4386 30.8726C66.2384 30.5983 63.6783 31.8783 61.5753 34.2556C60.021 36.0843 58.558 37.9129 57.4608 40.1073C56.7294 41.4788 56.9122 42.7589 58.0094 43.3075C59.1981 43.8561 60.2953 43.3989 61.0267 42.0274C62.2154 39.7416 63.7697 37.7301 65.5984 35.9928C68.0671 33.8899 71.633 34.8042 72.5473 37.9129C73.8274 42.3932 73.736 46.9649 72.3645 51.4451Z" fill="#D13737" stroke="#FC6464" stroke-width="2" mask="url(#path-1-inside-1_12_430)"/>
</svg>
