<svg width="80" height="80" viewBox="0 0 80 80" fill="none" xmlns="http://www.w3.org/2000/svg">
<path d="M67.1454 37.4529L67.1483 37.4704C67.1323 37.4728 67.1165 37.4752 67.1009 37.4776L67.0562 37.4843L67.0135 37.4989C65.529 38.0073 63.9002 38.449 62.1231 38.8148L62.0809 38.8235L62.0408 38.8393C53.5091 42.1961 47.2988 50.3053 46.7486 58.3131L46.7289 58.5997L46.9666 58.7611C49.7468 60.6483 52.2334 63.2596 54.0325 65.4137C54.93 66.4883 55.6518 67.4436 56.1489 68.1296C56.3973 68.4725 56.5893 68.7478 56.7189 68.9368C56.7221 68.9415 56.7252 68.9461 56.7283 68.9506L52.5206 75.1431L52.2192 75.5868L52.6829 75.8564L57.8337 78.8514H47.2555C49.8437 75.7732 50.2334 72.3484 48.9647 69.5848C47.5849 66.5792 44.2977 64.4775 40.071 64.4775C35.9144 64.4775 32.5149 66.4554 31.0589 69.4066C29.7068 72.1471 30.0918 75.5951 32.8793 78.8514H22.2002L27.4551 75.8586L27.9253 75.5908L27.6212 75.1431L23.4135 68.9509C23.4156 68.9478 23.4177 68.9447 23.4199 68.9416C23.5474 68.7555 23.7365 68.4843 23.9812 68.1463C24.4707 67.47 25.1819 66.5275 26.0666 65.4654C27.8402 63.3362 30.2939 60.7473 33.0429 58.8523L33.2759 58.6917L33.2581 58.4092C32.7511 50.3701 26.525 42.2097 17.96 38.8397L17.9199 38.8239L17.8777 38.8152C16.1004 38.4495 14.4713 38.0078 12.9865 37.4992L12.9434 37.4844L12.8983 37.4777C12.8831 37.4754 12.8675 37.4731 12.8516 37.4707L12.8546 37.4531C7.29225 35.5224 3.78258 32.6623 1.98405 29.408C0.189237 26.1603 0.0612141 22.4534 1.38979 18.7401C4.03611 11.344 12.4657 3.96127 24.7856 0.558665C27.7915 3.6388 27.4827 7.48838 25.7687 9.73778C24.8924 10.8879 23.669 11.5977 22.3436 11.6211C21.026 11.6444 19.5028 10.9904 18.022 9.20132L17.5468 8.62733L17.1958 9.28455C15.5692 12.3296 14.6751 15.2766 14.4984 17.8527C14.3219 20.4242 14.8592 22.6689 16.1511 24.2453C17.456 25.8375 19.4684 26.6717 22.0659 26.5292C24.6479 26.3875 27.8218 25.2839 31.5406 23.0037L31.9213 22.7702L31.7322 22.3656C30.9388 20.669 30.4834 18.7063 30.4834 16.6111C30.4834 10.0639 34.881 4.91957 40.1222 4.91957C45.3635 4.91957 49.7612 10.0636 49.7612 16.6111C49.7612 18.7523 49.2861 20.7553 48.4604 22.4771L48.2642 22.8861L48.6523 23.1211C52.3354 25.3505 55.4785 26.418 58.0346 26.5342C60.6066 26.6512 62.5959 25.8016 63.8823 24.2043C65.1557 22.6232 65.6812 20.3828 65.4994 17.8193C65.3172 15.2511 64.4239 12.3164 62.8043 9.28447L62.4532 8.62725L61.9781 9.20123C60.4972 10.9903 58.9741 11.6443 57.6565 11.621C56.331 11.5976 55.1076 10.8878 54.2313 9.7377C52.5173 7.48834 52.2085 3.63877 55.2146 0.558634C67.5344 3.9613 75.9639 11.344 78.6102 18.7401C79.9388 22.4533 79.8108 26.1602 78.0159 29.4078C76.2174 32.6621 72.7077 35.5222 67.1454 37.4529Z" fill="#3C43ED" stroke="#7E93DD"/>
</svg>
