<svg width="32" height="30" viewBox="0 0 32 30" fill="none" xmlns="http://www.w3.org/2000/svg">
<path d="M10.1959 9.52222L10.2165 10.0157C11.4616 10.158 12.583 10.5471 13.5245 11.3142L13.5244 11.3143L13.5283 11.3173C14.3325 11.9467 14.9294 12.7518 15.3533 13.7402C16.5679 16.7121 17.6903 19.7186 18.8134 22.727C19.2769 23.9685 19.7405 25.2104 20.2108 26.4502C20.2763 26.6639 20.3787 26.8397 20.5297 26.9786C20.6808 27.1176 20.8651 27.2056 21.0706 27.2672L21.0826 27.2708L21.0949 27.2732C22.0473 27.4576 22.9735 27.6678 23.9221 27.8831C24.0957 27.9224 24.27 27.962 24.4453 28.0016C25.2828 28.2382 25.7991 28.8229 25.8294 29.4892L25.8298 29.4974L25.8307 29.5055C25.8389 29.5792 25.839 29.6279 25.8351 29.6594C25.8347 29.6627 25.8343 29.6656 25.8338 29.6682C25.812 29.6721 25.7726 29.6747 25.7075 29.6685C23.2626 29.3036 20.8156 28.9384 18.3682 28.6096C18.0794 28.5497 17.8388 28.3743 17.649 28.1211L17.6491 28.121L17.6425 28.1129C16.8808 27.1806 16.1193 26.2522 15.3591 25.3253C13.6729 23.2694 11.993 21.2212 10.33 19.155L10.33 19.155L10.3273 19.1517C10.1316 18.9169 9.92591 18.7287 9.68524 18.595C9.44336 18.4606 9.17866 18.3882 8.874 18.3677C6.31817 18.1542 4.3483 16.9898 3.07594 14.7278L3.07595 14.7278L3.0744 14.7252C2.29808 13.3842 2.01708 11.9429 2.26386 10.3917L2.26399 10.3918L2.26503 10.3835C2.28478 10.2255 2.28716 10.0441 2.18183 9.89086C2.07678 9.73805 1.90625 9.67398 1.74848 9.63454L1.74849 9.6345L1.74406 9.63347L0.320091 9.30487C0.294003 9.29834 0.273607 9.29315 0.25625 9.2881C0.293625 8.60301 0.405134 8.05528 0.995136 7.76028L0.99528 7.76057L1.00635 7.75432C1.28167 7.5987 1.55659 7.44234 1.83148 7.286C3.24085 6.48443 4.64964 5.6832 6.1099 4.98343C7.48042 4.34287 8.81277 4.11642 10.0938 4.28313C11.3756 4.44995 12.6227 5.01258 13.818 5.97603L13.8184 5.97633C15.7354 7.51535 17.6319 9.09374 19.5251 10.6694C20.1932 11.2255 20.8608 11.7812 21.5289 12.3347C21.6793 12.466 21.8672 12.5946 22.0865 12.5763C22.3173 12.5571 22.4757 12.3869 22.5937 12.2099L22.6024 12.1969L22.6093 12.183C22.7169 11.9679 22.9321 11.8245 23.2699 11.5994L23.2923 11.5844L23.5968 11.3814L23.297 11.1716C23.2087 11.1097 23.1232 11.0505 23.04 10.9929C22.7732 10.8081 22.5291 10.6389 22.2832 10.4477L22.2834 10.4475L22.2751 10.4416C18.7469 7.92149 16.6172 4.46422 15.386 0.375347C15.3785 0.346464 15.3693 0.3183 15.3607 0.293841C15.3631 0.294969 15.3656 0.296124 15.3681 0.297313C15.403 0.31364 15.4532 0.336566 15.5097 0.352184C20.568 2.16109 24.3478 5.33459 26.5825 10.272C26.666 10.4597 26.7674 10.6117 26.907 10.7331C27.0458 10.8538 27.2073 10.9311 27.3897 10.9919L27.3912 10.9924C29.115 11.5553 30.2834 12.6296 30.6992 14.4312L30.6992 14.4312L30.6999 14.4341L30.7001 14.435C31.0291 15.7874 31.3587 17.1424 31.725 18.5343L31.7249 18.5344L31.7263 18.5394C31.7564 18.6445 31.7531 18.699 31.7422 18.7332C31.7331 18.7618 31.7092 18.8058 31.6321 18.8664C31.6272 18.8685 31.6223 18.8708 31.6172 18.8733C31.583 18.8905 31.5412 18.9201 31.5084 18.9691C31.5067 18.9718 31.5049 18.9745 31.5033 18.9772C31.49 18.9885 31.4768 18.9997 31.4638 19.0108C31.1376 19.2882 30.8935 19.4959 30.6817 19.6514C30.4547 19.8181 30.2808 19.9126 30.1058 19.9629C29.7483 20.0656 29.3316 20.0038 28.3616 19.7986C26.3854 19.3805 24.6972 19.8018 23.1746 21.096L23.1746 21.096L23.1704 21.0997C23.015 21.2378 22.8407 21.3687 22.6563 21.507L22.6521 21.5102C22.4721 21.6451 22.2823 21.7875 22.1099 21.9407L22.1099 21.9407L22.1079 21.9426C21.7578 22.2608 21.3388 22.3955 20.8511 22.4652L20.851 22.465L20.8417 22.4667C20.659 22.4999 20.5983 22.478 20.573 22.4626C20.5421 22.4437 20.4941 22.3931 20.4244 22.2192C19.5836 20.0258 18.7425 17.8316 17.9013 15.6738L17.9012 15.6735C17.7661 15.3283 17.6347 14.9761 17.5034 14.6244C17.3214 14.1366 17.1398 13.6499 16.9492 13.1839C15.9215 10.6344 13.478 9.10378 10.7293 9.40919L10.7185 9.41039L10.7079 9.41251C10.6138 9.43132 10.5294 9.45008 10.4477 9.46824L10.4467 9.46847C10.3642 9.4868 10.2843 9.50453 10.1959 9.52222ZM29.1875 17.0751H29.1979L29.2083 17.0743C29.495 17.0504 29.761 16.909 29.9499 16.7086C30.137 16.5102 30.2635 16.2369 30.242 15.9372C30.2363 15.3219 29.7176 14.8564 29.1509 14.8564H29.1413L29.1318 14.8571C28.5439 14.9024 28.0233 15.3975 28.0233 15.984V15.9944L28.0241 16.0048C28.071 16.5673 28.5762 17.0751 29.1875 17.0751ZM7.44163 23.0284L7.45132 23.0308L7.46117 23.0324C7.7304 23.0773 8.00057 23.1103 8.26441 23.1425C8.32957 23.1505 8.39434 23.1584 8.45861 23.1665C8.78636 23.2074 9.10574 23.252 9.42274 23.3224L9.43326 23.3248L9.44393 23.3262L9.47281 23.33C10.0004 23.4005 10.6287 23.4845 11.2172 23.1083C11.233 23.0991 11.2431 23.0958 11.2478 23.0946C11.2554 23.0995 11.2785 23.1172 11.3104 23.1704L11.3235 23.1921L11.3405 23.2107C11.7281 23.6335 12.1163 24.0913 12.5081 24.5544C11.9459 24.7145 11.3538 24.8472 10.7527 24.9807C10.4521 24.9248 10.1459 24.8792 9.84397 24.8342C9.77037 24.8233 9.69701 24.8123 9.62405 24.8013C9.23183 24.742 8.8475 24.6793 8.47439 24.5905C7.84231 24.44 7.38512 23.7561 7.35003 23.1087C7.35025 23.0653 7.35286 23.0339 7.35619 23.0117C7.3765 23.0141 7.40437 23.019 7.44163 23.0284Z" fill="#00C2FF" stroke="#00F0FF" stroke-width="0.5"/>
</svg>
