<svg width="80" height="86" viewBox="0 0 80 86" fill="none" xmlns="http://www.w3.org/2000/svg">
<path d="M17.5918 58.5903L36.7 62.4899L37.193 62.5905L37.2905 62.0969L43.6905 29.6969L43.8669 28.8042L43.0188 29.134L35.8188 31.934L35.5 32.058V32.4V45.5H28.5V27.5314L48.9036 18.8991C49.5075 18.8884 50.017 18.7865 50.4845 18.693L50.4981 18.6903C51.0003 18.5898 51.4555 18.5 52 18.5C54.6064 18.5 57.012 19.9918 58.3713 22.2572L58.3712 22.2573L58.376 22.265L62.3733 28.6606C65.9782 34.7052 72.4753 38.4442 79.5 38.5022V45.4957C71.3893 45.355 63.7318 41.7969 58.3764 35.6709L57.7087 34.9071L57.5097 35.9019L55.1097 47.9019L55.0557 48.1721L55.2552 48.3621L63.5 56.2143V85.5H56.5V62V61.7857L56.3448 61.6379L47.9448 53.6379L47.3075 53.0309L47.1124 53.8892L43.2204 71.0142L16.1883 65.6078L17.5918 58.5903ZM63.3033 13.3033C61.8968 14.7098 59.9891 15.5 58 15.5C56.0109 15.5 54.1032 14.7098 52.6967 13.3033C51.2902 11.8968 50.5 9.98912 50.5 8C50.5 6.01088 51.2902 4.10322 52.6967 2.6967C54.1032 1.29018 56.0109 0.5 58 0.5C59.9891 0.5 61.8968 1.29018 63.3033 2.6967C64.7098 4.10322 65.5 6.01088 65.5 8C65.5 9.98912 64.7098 11.8968 63.3033 13.3033ZM8 29.5C7.07174 29.5 6.1815 29.1312 5.52513 28.4749C4.86875 27.8185 4.5 26.9283 4.5 26C4.5 25.0717 4.86875 24.1815 5.52513 23.5251C6.1815 22.8687 7.07174 22.5 8 22.5H19.5V29.5H8ZM12 13.5C11.0717 13.5 10.1815 13.1313 9.52513 12.4749C8.86875 11.8185 8.5 10.9283 8.5 10C8.5 9.07174 8.86875 8.1815 9.52513 7.52513C10.1815 6.86875 11.0717 6.5 12 6.5H31.5V13.5H12ZM4 45.5C3.07174 45.5 2.1815 45.1312 1.52513 44.4749C0.868749 43.8185 0.5 42.9283 0.5 42C0.5 41.0717 0.868748 40.1815 1.52513 39.5251C2.1815 38.8687 3.07174 38.5 4 38.5H19.5V45.5H4Z" fill="#4C9520" stroke="#5EDE53"/>
</svg>
