<svg width="80" height="69" viewBox="0 0 80 69" fill="none" xmlns="http://www.w3.org/2000/svg">
<path d="M29.0825 11.4172C29.0825 5.3878 33.9703 0.5 39.9997 0.5C46.0291 0.5 50.9169 5.3878 50.9169 11.4172C50.9169 17.4465 46.0291 22.3343 39.9997 22.3343C33.9703 22.3343 29.0825 17.4465 29.0825 11.4172ZM39.9997 5.21429C36.5739 5.21429 33.7968 7.9914 33.7968 11.4172C33.7968 14.8429 36.5739 17.6201 39.9997 17.6201C43.4255 17.6201 46.2026 14.8429 46.2026 11.4172C46.2026 7.9914 43.4255 5.21429 39.9997 5.21429Z" fill="#ECD71D" stroke="#FAFF18"/>
<path d="M57.6428 14.2742C57.6428 9.81651 61.2567 6.20282 65.7143 6.20282C70.1718 6.20282 73.7857 9.81651 73.7857 14.2742C73.7857 18.732 70.1718 22.3457 65.7143 22.3457C61.2567 22.3457 57.6428 18.732 57.6428 14.2742ZM65.7143 10.9171C63.8604 10.9171 62.3571 12.4201 62.3571 14.2742C62.3571 16.1284 63.8604 17.6314 65.7143 17.6314C67.5681 17.6314 69.0714 16.1284 69.0714 14.2742C69.0714 12.4201 67.5681 10.9171 65.7143 10.9171Z" fill="#ECD71D" stroke="#FAFF18"/>
<path d="M6.21387 14.2742C6.21387 9.8165 9.82755 6.20282 14.2853 6.20282C18.743 6.20282 22.3567 9.8165 22.3567 14.2742C22.3567 18.732 18.743 22.3457 14.2853 22.3457C9.82755 22.3457 6.21387 18.732 6.21387 14.2742ZM14.2853 10.9171C12.4312 10.9171 10.9282 12.4202 10.9282 14.2742C10.9282 16.1283 12.4312 17.6314 14.2853 17.6314C16.1394 17.6314 17.6424 16.1283 17.6424 14.2742C17.6424 12.4202 16.1394 10.9171 14.2853 10.9171Z" fill="#ECD71D" stroke="#FAFF18"/>
<path d="M17.84 29.0582C17.1417 30.4926 16.7227 32.0879 16.6532 33.7725H5.71429H5.21429V34.2725V48.5599C5.21429 53.5704 9.2757 57.6314 14.2857 57.6314C15.3567 57.6314 16.3852 57.4458 17.3402 57.1044C17.7268 58.6494 18.2671 60.1331 18.9441 61.5388C17.4895 62.0609 15.9213 62.3457 14.2857 62.3457C6.67209 62.3457 0.5 56.1735 0.5 48.5599V34.2725C0.5 31.3927 2.83454 29.0582 5.71429 29.0582H17.84Z" fill="#ECD71D" stroke="#FAFF18"/>
<path d="M74.7861 34.2725V33.7725L74.2861 33.7725L63.3472 33.7725C63.2777 32.0879 62.8585 30.4927 62.1602 29.0582H74.2861C77.1659 29.0582 79.5003 31.3927 79.5003 34.2725V48.5599C79.5003 56.1735 73.3282 62.3457 65.7146 62.3457C64.0791 62.3457 62.5109 62.0609 61.0564 61.5388C61.7333 60.1331 62.2736 58.6494 62.6601 57.1044C63.6152 57.4458 64.6438 57.6314 65.7146 57.6314C70.7245 57.6314 74.7861 53.5704 74.7861 48.5599V34.2725Z" fill="#ECD71D" stroke="#FAFF18"/>
<path d="M28.5717 33.7725H28.0717V34.2725V51.4171C28.0717 58.0052 33.4123 63.3457 40.0003 63.3457C46.5882 63.3457 51.9288 58.0052 51.9288 51.4171V34.2725V33.7725H51.4288H28.5717ZM23.3574 34.2725C23.3574 31.3927 25.692 29.0582 28.5717 29.0582H51.4288C54.3087 29.0582 56.6431 31.3927 56.6431 34.2725V51.4171C56.6431 60.6089 49.1919 68.0599 40.0003 68.0599C30.8087 68.0599 23.3574 60.6089 23.3574 51.4171V34.2725Z" fill="#ECD71D" stroke="#FAFF18"/>
</svg>
